<mxfile host="Electron" agent="Mozilla/5.0 (Windows NT 10.0; Win64; x64) AppleWebKit/537.36 (KHTML, like Gecko) draw.io/28.1.2 Chrome/138.0.7204.243 Electron/37.4.0 Safari/537.36" version="28.1.2">
  <diagram name="Page-1" id="yW0bkaJG0wbrmnyXvfqT">
    <mxGraphModel dx="1426" dy="1249" grid="0" gridSize="10" guides="1" tooltips="1" connect="1" arrows="1" fold="1" page="0" pageScale="1" pageWidth="827" pageHeight="1169" math="0" shadow="0">
      <root>
        <mxCell id="0" />
        <mxCell id="1" parent="0" />
        <mxCell id="09wRRcmlkYTDtqjVkMiG-29" value="&lt;span style=&quot;font-size: 12px;&quot;&gt;HUAWEI CLOUD&lt;/span&gt;" style="rounded=1;whiteSpace=wrap;html=1;fillColor=none;verticalAlign=top;align=left;spacingLeft=34;spacingTop=2;fontSize=12;fontStyle=0;fontColor=#282B33;strokeColor=#C7000B;fontFamily=Arial;arcSize=20;absoluteArcSize=1;strokeWidth=1;" parent="1" vertex="1">
          <mxGeometry x="140" y="-60" width="540" height="620" as="geometry" />
        </mxCell>
        <mxCell id="if3oiUN3qjUnLQMsc54G-14" value="var.create_obs = true" style="rounded=1;whiteSpace=wrap;html=1;fillColor=#f5f5f5;strokeColor=#666666;dashed=1;absoluteArcSize=1;imageHeight=24;arcSize=20;fontColor=#333333;verticalAlign=bottom;align=right;spacingLeft=4;fontFamily=Arial;spacingTop=0;strokeWidth=1;opacity=50;fontStyle=2;spacingRight=5;" vertex="1" parent="1">
          <mxGeometry x="340" y="450" width="310" height="230" as="geometry" />
        </mxCell>
        <mxCell id="09wRRcmlkYTDtqjVkMiG-20" value="VPC vpc-demo -&amp;nbsp;&lt;span style=&quot;background-color: initial;&quot;&gt;10.0.0.0/16&lt;/span&gt;" style="rounded=1;whiteSpace=wrap;html=1;fillColor=none;strokeColor=#f85835;absoluteArcSize=1;imageHeight=24;arcSize=20;fontColor=#f85835;verticalAlign=top;align=left;spacingLeft=34;fontFamily=Arial;spacingTop=2;strokeWidth=1;" parent="1" vertex="1">
          <mxGeometry x="200" y="-20" width="460" height="460" as="geometry" />
        </mxCell>
        <mxCell id="09wRRcmlkYTDtqjVkMiG-23" value="Subnet subnet-demo&lt;div&gt;10.0.0.0/24&lt;/div&gt;" style="rounded=1;whiteSpace=wrap;html=1;fillColor=none;strokeColor=#5ecc49;absoluteArcSize=1;imageHeight=24;arcSize=20;fontColor=#5ecc49;verticalAlign=top;align=left;spacingLeft=34;fontFamily=Arial;spacingTop=2;strokeWidth=1;" parent="1" vertex="1">
          <mxGeometry x="270" y="20" width="370" height="400" as="geometry" />
        </mxCell>
        <mxCell id="09wRRcmlkYTDtqjVkMiG-6" value="" style="rounded=1;whiteSpace=wrap;html=1;fillColor=none;strokeColor=#3298ff;dashed=1;absoluteArcSize=1;imageHeight=24;arcSize=20;fontColor=#3298ff;verticalAlign=top;align=center;spacingLeft=0;fontFamily=Arial;spacingTop=0;strokeWidth=1;" parent="1" vertex="1">
          <mxGeometry x="340" y="80" width="280" height="280" as="geometry" />
        </mxCell>
        <mxCell id="if3oiUN3qjUnLQMsc54G-6" value="Node Pool cce-demo-pool" style="rounded=1;whiteSpace=wrap;html=1;fillColor=#CCE5FF;strokeColor=#3298ff;dashed=1;absoluteArcSize=1;imageHeight=24;arcSize=20;fontColor=#3298ff;verticalAlign=bottom;align=center;spacingLeft=0;fontFamily=Arial;spacingTop=0;strokeWidth=1;labelBackgroundColor=none;opacity=20;" vertex="1" parent="1">
          <mxGeometry x="360" y="220" width="240" height="120" as="geometry" />
        </mxCell>
        <mxCell id="if3oiUN3qjUnLQMsc54G-2" value="var.create_elb = true" style="rounded=1;whiteSpace=wrap;html=1;fillColor=#f5f5f5;strokeColor=#666666;dashed=1;absoluteArcSize=1;imageHeight=24;arcSize=20;fontColor=#333333;verticalAlign=top;align=left;spacingLeft=4;fontFamily=Arial;spacingTop=0;strokeWidth=1;opacity=50;fontStyle=2" vertex="1" parent="1">
          <mxGeometry x="80" y="190" width="240" height="110" as="geometry" />
        </mxCell>
        <mxCell id="if3oiUN3qjUnLQMsc54G-1" value="var.create_nat = true" style="rounded=1;whiteSpace=wrap;html=1;fillColor=#f5f5f5;strokeColor=#666666;dashed=1;absoluteArcSize=1;imageHeight=24;arcSize=20;fontColor=#333333;verticalAlign=top;align=left;spacingLeft=4;fontFamily=Arial;spacingTop=0;strokeWidth=1;opacity=50;fontStyle=2" vertex="1" parent="1">
          <mxGeometry x="80" y="70" width="240" height="110" as="geometry" />
        </mxCell>
        <mxCell id="09wRRcmlkYTDtqjVkMiG-21" value="" style="shape=image;verticalLabelPosition=bottom;labelBackgroundColor=default;verticalAlign=top;aspect=fixed;imageAspect=0;image=data:image/svg+xml,PHN2ZyB4bWxucz0iaHR0cDovL3d3dy53My5vcmcvMjAwMC9zdmciIHhtbDpzcGFjZT0icHJlc2VydmUiIGlkPSJzdmcxNDQwIiB2ZXJzaW9uPSIxLjEiIHZpZXdCb3g9IjAgMCAzMCAzMCIgaGVpZ2h0PSIzMG1tIiB3aWR0aD0iMzBtbSI+PGRlZnMgaWQ9ImRlZnMxNDM3Ii8+PGcgdHJhbnNmb3JtPSJ0cmFuc2xhdGUoLTEwMS44MzczOSwtODYuNTA0MDEzKSIgaWQ9ImxheWVyMSI+PHBhdGggZD0ibSAxMTEuODM3MTgsODYuNTAzODk0IGMgLTUuNTM5OTksMCAtOS45OTk5MSw0LjQ1OTkxIC05Ljk5OTkxLDkuOTk5OTEgdiAyLjI4NjE2IDcuNzEzNzM2IDEwLjAwMDQzIGggOS45OTk5MSA0Ljc0MDggNS4yNTkxMSBjIDUuNTM5OTksMCAxMC4wMDA0MiwtNC40NjA0MyAxMC4wMDA0MiwtMTAuMDAwNDMgdiAtNC45OTk2OSAtNS4wMDAyMDYgLTkuOTk5OTEgaCAtMTAuMDAwNDIgLTQuMDM1NDIgeiIgc3R5bGU9ImZpbGw6I2Y4NTgzNTtmaWxsLW9wYWNpdHk6MTtzdHJva2Utd2lkdGg6MS4xNzU0NjtzdHJva2UtbGluZWNhcDpyb3VuZDtzdHJva2UtZGFzaGFycmF5OjIuMzUwOTIsIDIuMzUwOTI7cGFpbnQtb3JkZXI6bWFya2VycyBzdHJva2UgZmlsbCIgaWQ9InJlY3QxLTIiLz48ZyB0cmFuc2Zvcm09InRyYW5zbGF0ZSgtMjYuOTg3NSwtMjEuNjk1ODM3KSIgaWQ9ImcxIj48cGF0aCBzdHlsZT0iZmlsbC1ydWxlOmV2ZW5vZGQ7c3Ryb2tlOm5vbmU7c3Ryb2tlLXdpZHRoOjAuNDE2NjY3IiBmaWxsPSIjZmZmZmZmIiBpZD0i5b2i54q257uT5ZCIIiBkPSJtIDEzOS4zMzk2NSwxMzAuNjgzMDIgYyAtMy4wNDU3MiwwIC01LjUxNDc2LC0yLjQ1NTIxIC01LjUxNDc2LC01LjQ4Mzg4IDAsLTIuODE2MDEgMi4xMzQ1MSwtNS4xMzYyOCA0Ljg4MjQyLC01LjQ0ODIyIDAuNTQxNywtMi4zMTE5MyAyLjYyNzM3LC00LjAzNDI0IDUuMTE3NTgsLTQuMDM0MjQgMi40OTAyMSwwIDQuNTc1ODgsMS43MjIzMSA1LjExODA3LDQuMDM0MzcgMi43NDc0MiwwLjMxMTgxIDQuODgxOTMsMi42MzIwOCA0Ljg4MTkzLDUuNDQ4MDkgMCwzLjAyODY3IC0yLjQ2OTA0LDUuNDgzODggLTUuNTE0NzYsNS40ODM4OCB6Ii8+PHBvbHlnb24gc3R5bGU9ImZpbGw6bm9uZTtmaWxsLXJ1bGU6ZXZlbm9kZCIgdHJhbnNmb3JtPSJtYXRyaXgoMC40MTY2NjY2NywwLDAsMC40MTY2NjY2NywxMjguODI0ODksMTA4LjE5OTg1KSIgcG9pbnRzPSIyMy4zMTgwNTEsMjcuMjA1MjE0IDI2Ljk3NjUyOSw0MS43MDkwNTggMzcuMTQyOTY0LDMwLjk1MjM5MyIgc3Ryb2tlLXdpZHRoPSIxLjUiIHN0cm9rZT0iI2Y4NTgzNSIgaWQ9Iui3r+W+hC0xMyIvPjxjaXJjbGUgc3R5bGU9ImZpbGwtcnVsZTpldmVub2RkO3N0cm9rZTpub25lO3N0cm9rZS13aWR0aDowLjQxNjY2NyIgcj0iMC45MDE2NjExIiBjeT0iMTI1LjU3ODYyIiBjeD0iMTQwLjA3NDg5IiBmaWxsPSIjZjg1ODM1IiBpZD0i5qSt5ZyG5b2iIi8+PGNpcmNsZSBzdHlsZT0iZmlsbC1ydWxlOmV2ZW5vZGQ7c3Ryb2tlOm5vbmU7c3Ryb2tlLXdpZHRoOjAuNDE2NjY3IiByPSIwLjkwMTY2MTEiIGN5PSIxMjEuMDc3MDUiIGN4PSIxNDQuNDM5NjUiIGZpbGw9IiNmODU4MzUiIGlkPSJjaXJjbGUxIi8+PC9nPjwvZz48L3N2Zz4=;resizable=0;" parent="1" vertex="1">
          <mxGeometry x="200" y="-20" width="30" height="30" as="geometry" />
        </mxCell>
        <mxCell id="09wRRcmlkYTDtqjVkMiG-24" value="" style="shape=image;verticalLabelPosition=bottom;labelBackgroundColor=default;verticalAlign=top;aspect=fixed;imageAspect=0;image=data:image/svg+xml,PHN2ZyB4bWxucz0iaHR0cDovL3d3dy53My5vcmcvMjAwMC9zdmciIHhtbDpzcGFjZT0icHJlc2VydmUiIGlkPSJzdmcxNDQwIiB2ZXJzaW9uPSIxLjEiIHZpZXdCb3g9IjAgMCAzMCAzMCIgaGVpZ2h0PSIzMG1tIiB3aWR0aD0iMzBtbSI+PGRlZnMgaWQ9ImRlZnMxNDM3Ij4mI3hhOwkmI3hhOwkmI3hhOwkmI3hhOwkmI3hhOwkmI3hhOwkmI3hhOwkmI3hhOyYjeGE7CQkmI3hhOwkmI3hhOwkJJiN4YTsJJiN4YTsJCSYjeGE7CTwvZGVmcz48ZyB0cmFuc2Zvcm09InRyYW5zbGF0ZSgtMTAxLjgzNzM5LC04Ni41MDQwMTMpIiBpZD0ibGF5ZXIxIj48cGF0aCBkPSJtIDExMS44MzcxOCw4Ni41MDM4OTUgYyAtNS41Mzk5OSwwIC05Ljk5OTkxLDQuNDU5OTEgLTkuOTk5OTEsOS45OTk5MSB2IDIuMjg2MTYgNy43MTM3MzUgMTAuMDAwNDMgaCA5Ljk5OTkxIDQuNzQwOCA1LjI1OTExIGMgNS41Mzk5OSwwIDEwLjAwMDQyLC00LjQ2MDQzIDEwLjAwMDQyLC0xMC4wMDA0MyB2IC00Ljk5OTY5IC01LjAwMDIwNSAtOS45OTk5MSBoIC0xMC4wMDA0MiAtNC4wMzU0MiB6IiBzdHlsZT0iZmlsbDojNWVjYzQ5O2ZpbGwtb3BhY2l0eToxO3N0cm9rZS13aWR0aDoxLjE3NTQ2O3N0cm9rZS1saW5lY2FwOnJvdW5kO3N0cm9rZS1kYXNoYXJyYXk6Mi4zNTA5MiwgMi4zNTA5MjtwYWludC1vcmRlcjptYXJrZXJzIHN0cm9rZSBmaWxsIiBpZD0icmVjdDEtMiIvPjxwYXRoIHN0eWxlPSJmaWxsOiNmZmZmZmY7c3Ryb2tlLXdpZHRoOjAuNDU0NTQ1IiBpZD0icGF0aDEiIGQ9Im0gMTE2LjgzNzM5LDkyLjQxMzEwMyBjIDUsMCA5LjA5MDkxLDQuMDkwOTExIDkuMDkwOTEsOS4wOTA5MDcgMCw1IC00LjA5MDkxLDkuMDkwOTEgLTkuMDkwOTEsOS4wOTA5MSAtNSwwIC05LjA5MDkxLC00LjA5MDkxIC05LjA5MDkxLC05LjA5MDkxIDAsLTQuOTk5OTk2IDQuMDkwOTEsLTkuMDkwOTA3IDkuMDkwOTEsLTkuMDkwOTA3IG0gMCwtMC45MDkwOTEgYyAtNS41NDU0NSwwIC0xMCw0LjQ1NDU0MiAtMTAsOS45OTk5OTggMCw1LjU0NTQ1IDQuNDU0NTUsMTAgMTAsMTAgNS41NDU0NiwwIDEwLC00LjQ1NDU1IDEwLC0xMCAwLC01LjU0NTQ1NiAtNC40NTQ1NCwtOS45OTk5OTggLTEwLC05Ljk5OTk5OCB6Ii8+PHBhdGggc3R5bGU9ImZpbGw6I2ZmZmZmZjtzdHJva2Utd2lkdGg6MC40NTQ1NDUiIGlkPSJwYXRoMiIgZD0ibSAxMTIuNjEwMTIsOTguNTQ5NDY0IGMgLTAuMzE4MTgsMCAtMC42MzYzNywtMC4xMzYzNiAtMC44NjM2NCwtMC4zNjM2MyAtMC40NTQ1NCwtMC40NTQ1NSAtMC40NTQ1NCwtMS4yMjcyOCAwLC0xLjcyNzI4IDAuMjI3MjcsLTAuMjI3MjcgMC41NDU0NiwtMC4zNjM2MyAwLjg2MzY0LC0wLjM2MzYzIDAuMzE4MTgsMCAwLjYzNjM2LDAuMTM2MzYgMC44NjM2MywwLjM2MzYzIDAuNDU0NTUsMC40NTQ1NSAwLjQ1NDU1LDEuMjI3MjggMCwxLjcyNzI4IC0wLjIyNzI3LDAuMjI3MjcgLTAuNTQ1NDUsMC4zNjM2MyAtMC44NjM2MywwLjM2MzYzIHoiLz48cGF0aCBzdHlsZT0iZmlsbDojZmZmZmZmO3N0cm9rZS13aWR0aDowLjQ1NDU0NSIgaWQ9InBhdGgzIiBkPSJtIDExNC45NzM3NSwxMDcuOTEzMSBjIC0wLjMxODE4LDAgLTAuNjM2MzYsLTAuMTM2MzYgLTAuODYzNjMsLTAuMzYzNjQgLTAuNDU0NTUsLTAuNDU0NTQgLTAuNDU0NTUsLTEuMjI3MjcgMCwtMS43MjcyNyAwLjIyNzI3LC0wLjIyNzI3IDAuNTQ1NDUsLTAuMzYzNjQgMC44NjM2MywtMC4zNjM2NCAwLjMxODE5LDAgMC42MzYzNywwLjEzNjM3IDAuODYzNjQsMC4zNjM2NCAwLjQ1NDU1LDAuNDU0NTUgMC40NTQ1NSwxLjIyNzI3IDAsMS43MjcyNyAtMC4yMjcyNywwLjIyNzI4IC0wLjU0NTQ1LDAuMzYzNjQgLTAuODYzNjQsMC4zNjM2NCB6Ii8+PHBhdGggc3R5bGU9ImZpbGw6I2ZmZmZmZjtzdHJva2Utd2lkdGg6MC40NTQ1NDUiIGlkPSJwYXRoNCIgZD0ibSAxMjEuOTczNzUsMTAwLjkxMzEgYyAtMC4zMTgxOCwwIC0wLjYzNjM2LC0wLjEzNjM2IC0wLjg2MzYzLC0wLjM2MzY0IC0wLjQ1NDU1LC0wLjQ1NDU0IC0wLjQ1NDU1LC0xLjIyNzI2NiAwLC0xLjcyNzI2NiAwLjIyNzI3LC0wLjIyNzI3IDAuNTQ1NDUsLTAuMzYzNjQgMC44NjM2MywtMC4zNjM2NCAwLjMxODE5LDAgMC42MzYzNywwLjEzNjM3IDAuODYzNjQsMC4zNjM2NCAwLjIyNzI3LDAuMjI3MjcgMC4zNjM2NCwwLjU0NTQ1IDAuMzYzNjQsMC44NjM2NCAwLDAuMzE4MTc2IC0wLjEzNjM3LDAuNjM2MzU2IC0wLjM2MzY0LDAuODYzNjI2IC0wLjIyNzI3LDAuMjI3MjggLTAuNTQ1NDUsMC4zNjM2NCAtMC44NjM2NCwwLjM2MzY0IHoiLz48cmVjdCBzdHlsZT0iZmlsbDojZmZmZmZmO3N0cm9rZS13aWR0aDowLjI1NTtzdHJva2U6I2ZmZmZmZjtzdHJva2UtZGFzaGFycmF5Om5vbmUiIGlkPSJyZWN0NCIgaGVpZ2h0PSI3Ljc3MjkxOTciIHdpZHRoPSIwLjQwOTEwMTAxIiB0cmFuc2Zvcm09InJvdGF0ZSgtMTQuMTQ2MDIyKSIgeT0iMTIyLjg1NjQ4IiB4PSI4NS4xNzk2MjYiLz48cmVjdCBzdHlsZT0iZmlsbDojZmZmZmZmO3N0cm9rZS13aWR0aDowLjI1NTtzdHJva2U6I2ZmZmZmZjtzdHJva2UtZGFzaGFycmF5Om5vbmUiIGlkPSJyZWN0NSIgaGVpZ2h0PSIwLjQwOTA4NzI0IiB3aWR0aD0iOC4wNDUzODI1IiB0cmFuc2Zvcm09InJvdGF0ZSgtNDUuMDY0ODIzKSIgeT0iMTU2LjUxNjI3IiB4PSI2LjU5MTMxNDgiLz48cmVjdCBzdHlsZT0iZmlsbDojZmZmZmZmO3N0cm9rZS13aWR0aDowLjI1NTtzdHJva2U6I2ZmZmZmZjtzdHJva2UtZGFzaGFycmF5Om5vbmUiIGlkPSJyZWN0NiIgaGVpZ2h0PSI3LjUwMDM2ODYiIHdpZHRoPSIwLjQwOTExMDk5IiB0cmFuc2Zvcm09InJvdGF0ZSgtNzUuODQ4NDIzKSIgeT0iMTM0LjA4MDczIiB4PSItNjcuMDYxODA2Ii8+PC9nPjwvc3ZnPg==;resizable=0;imageBackground=none;" parent="1" vertex="1">
          <mxGeometry x="270" y="20" width="30" height="30" as="geometry" />
        </mxCell>
        <mxCell id="09wRRcmlkYTDtqjVkMiG-7" value="Container Network&lt;div&gt;10.246.0.0/16&lt;/div&gt;" style="rounded=1;whiteSpace=wrap;html=1;fillColor=#e1d5e7;strokeColor=#9673a6;dashed=1;absoluteArcSize=1;imageHeight=24;arcSize=20;verticalAlign=middle;align=center;spacingLeft=0;fontFamily=Arial;spacingTop=0;opacity=50;strokeWidth=1;" parent="1" vertex="1">
          <mxGeometry x="360" y="100" width="240" height="50" as="geometry" />
        </mxCell>
        <mxCell id="09wRRcmlkYTDtqjVkMiG-15" style="edgeStyle=orthogonalEdgeStyle;rounded=1;orthogonalLoop=1;jettySize=auto;html=1;exitX=0.25;exitY=0;exitDx=0;exitDy=0;entryX=1;entryY=0.75;entryDx=0;entryDy=0;curved=0;dashed=1;strokeWidth=1;strokeColor=#4D4D4D;" parent="1" source="09wRRcmlkYTDtqjVkMiG-4" target="09wRRcmlkYTDtqjVkMiG-12" edge="1">
          <mxGeometry relative="1" as="geometry" />
        </mxCell>
        <mxCell id="if3oiUN3qjUnLQMsc54G-13" style="edgeStyle=orthogonalEdgeStyle;rounded=1;orthogonalLoop=1;jettySize=auto;html=1;exitX=0;exitY=0.75;exitDx=0;exitDy=0;curved=0;dashed=1;strokeColor=#4D4D4D;strokeWidth=1;align=center;verticalAlign=middle;fontFamily=Helvetica;fontSize=11;fontColor=default;labelBackgroundColor=default;endArrow=classic;" edge="1" parent="1" source="09wRRcmlkYTDtqjVkMiG-4" target="if3oiUN3qjUnLQMsc54G-12">
          <mxGeometry relative="1" as="geometry" />
        </mxCell>
        <mxCell id="09wRRcmlkYTDtqjVkMiG-4" value="CCE&#xa;cce-demo" style="shape=image;verticalLabelPosition=bottom;verticalAlign=top;imageAspect=0;aspect=fixed;image=data:image/svg+xml,PHN2ZyB2ZXJzaW9uPSIxLjEiIHZpZXdCb3g9IjAgMCA3MiA3MiIgeG1sbnM9Imh0dHA6Ly93d3cudzMub3JnLzIwMDAvc3ZnIj4KPHRpdGxlPuWuueWZqC9DQ0U8L3RpdGxlPgo8ZyBmaWxsPSJub25lIiBmaWxsLXJ1bGU9ImV2ZW5vZGQiPgo8cmVjdCB3aWR0aD0iNzIiIGhlaWdodD0iNzIiIHJ4PSIxNiIgZmlsbD0iIzAwQUJFRCIvPgo8ZyB0cmFuc2Zvcm09InRyYW5zbGF0ZSgxMyAxMykiIGZpbGw9IiNmZmYiIHN0cm9rZT0iI2ZmZiI+CjxwYXRoIGQ9Im0zNi44MzIgMjEuMzExLTExLjk4NS0xMi4wNDJjLTAuNTEwNTgtMC41MTIzMy0xLjE3ODUtMC43NjgwNi0xLjg0NzItMC43NjgwNi0wLjY2Nzg4IDAtMS4zMzU4IDAuMjU1NzMtMS44NDYzIDAuNzY4MDZsLTExLjk4NSAxMi4wNDJjLTAuODkxOTcgMC44OTU0OC0wLjg5MTk3IDIuMzQ3MiAwIDMuMjQxOGwxMi4yMTggMTIuMjc2YzAuNDQ1NTUgMC40NDgxOCAxLjAyOTkgMC42NzIyNyAxLjYxMzUgMC42NzIyNyAwLjU4MzUyIDAgMS4xNjc5LTAuMjI0MDkgMS42MTM1LTAuNjcyMjdsMTIuMjE5LTEyLjI3NmMwLjg5MTA5LTAuODk0NjEgMC44OTEwOS0yLjM0NjQgMC0zLjI0MTgiLz4KPHBhdGggZD0ibTE0LjYzNiA0My45MDloLTkuNTEzNmMtMS42NzI3IDAtMy4wMzE4LTEuMzU5MS0zLjAzMTgtMy4wMzE4di05LjUxMzZjMC0wLjYyNzI3LTAuNDE4MTgtMS4wNDU1LTEuMDQ1NS0xLjA0NTUtMC42MjcyNyAwLTEuMDQ1NSAwLjQxODE4LTEuMDQ1NSAxLjA0NTV2OS41MTM2YzAgMi44MjI3IDIuMyA1LjEyMjcgNS4xMjI3IDUuMTIyN2g5LjUxMzZjMC42MjcyNyAwIDEuMDQ1NS0wLjQxODE4IDEuMDQ1NS0xLjA0NTUgMC0wLjYyNzI3LTAuNDE4MTgtMS4wNDU1LTEuMDQ1NS0xLjA0NTVtMzAuMzE4LTEzLjU5MWMtMC42MjcyNyAwLTEuMDQ1NSAwLjQxODE4LTEuMDQ1NSAxLjA0NTV2OS41MTM2YzAgMS42NzI3LTEuMzU5MSAzLjAzMTgtMy4wMzE4IDMuMDMxOGgtOS41MTM2Yy0wLjYyNzI3IDAtMS4wNDU1IDAuNDE4MTgtMS4wNDU1IDEuMDQ1NSAwIDAuNjI3MjcgMC40MTgxOCAxLjA0NTUgMS4wNDU1IDEuMDQ1NWg5LjUxMzZjMi44MjI3IDAgNS4xMjI3LTIuMyA1LjEyMjctNS4xMjI3di05LjUxMzZjMC0wLjYyNzI3LTAuNDE4MTgtMS4wNDU1LTEuMDQ1NS0xLjA0NTVtLTQuMDc3My0zMC4zMThoLTkuNTEzNmMtMC42MjcyNyAwLTEuMDQ1NSAwLjQxODE4LTEuMDQ1NSAxLjA0NTUgMCAwLjYyNzI3IDAuNDE4MTggMS4wNDU1IDEuMDQ1NSAxLjA0NTVoOS41MTM2YzEuNjcyNyAwIDMuMDMxOCAxLjM1OTEgMy4wMzE4IDMuMDMxOHY5LjUxMzZjMCAwLjYyNzI3IDAuNDE4MTggMS4wNDU1IDEuMDQ1NSAxLjA0NTUgMC42MjcyNyAwIDEuMDQ1NS0wLjQxODE4IDEuMDQ1NS0xLjA0NTV2LTkuNTEzNmMwLTIuODIyNy0yLjMtNS4xMjI3LTUuMTIyNy01LjEyMjdtLTM5LjgzMiAxNS42ODJjMC42MjcyNyAwIDEuMDQ1NS0wLjQxODE4IDEuMDQ1NS0xLjA0NTV2LTkuNTEzNmMwLTEuNjcyNyAxLjM1OTEtMy4wMzE4IDMuMDMxOC0zLjAzMThoOS41MTM2YzAuNjI3MjcgMCAxLjA0NTUtMC40MTgxOCAxLjA0NTUtMS4wNDU1IDAtMC42MjcyNy0wLjQxODE4LTEuMDQ1NS0xLjA0NTUtMS4wNDU1aC05LjUxMzZjLTIuODIyNyAwLTUuMTIyNyAyLjMtNS4xMjI3IDUuMTIyN3Y5LjUxMzZjMCAwLjYyNzI3IDAuNDE4MTggMS4wNDU1IDEuMDQ1NSAxLjA0NTUiLz4KPC9nPgo8L2c+Cjwvc3ZnPgo=;spacingTop=-4;" parent="1" vertex="1">
          <mxGeometry x="320" y="340" width="40" height="40" as="geometry" />
        </mxCell>
        <mxCell id="09wRRcmlkYTDtqjVkMiG-5" value="ECS&#xa;cce-demo-pool-xxx" style="shape=image;verticalLabelPosition=bottom;verticalAlign=top;imageAspect=0;aspect=fixed;image=data:image/svg+xml,PHN2ZyB2ZXJzaW9uPSIxLjEiIHZpZXdCb3g9IjAgMCAyNCAyNCIgeG1sbnM9Imh0dHA6Ly93d3cudzMub3JnLzIwMDAvc3ZnIj4KPHRpdGxlPuiuoeeuly9FQ1M8L3RpdGxlPgo8ZyBmaWxsPSJub25lIiBmaWxsLXJ1bGU9ImV2ZW5vZGQiPgo8cmVjdCB3aWR0aD0iMjQuMDA3IiBoZWlnaHQ9IjI0LjAwNyIgcng9IjUuMDAxNCIgZmlsbD0iI0Y4NTgzNSIgZmlsbC1ydWxlPSJub256ZXJvIi8+CjxwYXRoIGQ9Im04LjAwNDcgMTguMDA1LTEuNzk4M2UtNCAtMC4wMDcxNTc3Yy0yLjIzMjEtMC4xMzIwNC00LjAwMzQtMi4wNzQ0LTQuMDAzNC00LjQ1MTIgMC0yLjQxOTMgMS44MzUyLTQuMzg4NSA0LjEyMzYtNC40NTY1IDAuNTUwNjMtMS43OTIgMi4xNTIxLTMuMDg4NCA0LjA0MTktMy4wODg0IDEuODk4MiAwIDMuNTA1NSAxLjMwNzkgNC4wNDkxIDMuMTEyMyAyLjEzMDQgMC4yMzg2IDMuNzg5OCAyLjEzMjEgMy43ODk4IDQuNDMyNiAwIDIuNDI3MS0xLjg0NzEgNC40MDEyLTQuMTQ1OCA0LjQ1NzFsLTAuMTAwMjMgMC4wMDEyMTc2aC03Ljc1NDd6IiBmaWxsPSIjZmZmIi8+CjxyZWN0IHg9IjYuNjQzMSIgeT0iMTEuMjI3IiB3aWR0aD0iMTAuNzU1IiBoZWlnaHQ9IjMuMjkwMiIgcng9IjEuNjQ1MSIgZmlsbD0iI0Y4NTgzNSIgZmlsbC1ydWxlPSJub256ZXJvIi8+CjxwYXRoIGQ9Im03LjY0NDggMTUuNTA3IDguNzY3IDAuMDM3NTE5YzAuMjAxMTQgOC42MDdlLTQgMC4zNjM0OSAwLjE2NTIzIDAuMzYyNjQgMC4zNjcxMy04LjI1M2UtNCAwLjE5MjcyLTAuMTUwMDYgMC4zNDk5OC0wLjMzODU2IDAuMzYzMTNsLTAuMDI3MTg0IDguODYzZS00IC04Ljc2Ny0wLjAzNzUxOWMtMC4yMDExNC04LjYwN2UtNCAtMC4zNjM0OS0wLjE2NTIzLTAuMzYyNjQtMC4zNjcxMyA4LjI1MjZlLTQgLTAuMTkyNzIgMC4xNTAwNi0wLjM0OTk4IDAuMzM4NTYtMC4zNjMxM2wwLjAyNzE4NC04Ljg2M2UtNHoiIGZpbGw9IiNGODU4MzUiIGZpbGwtcnVsZT0ibm9uemVybyIvPgo8Y2lyY2xlIGN4PSIxNS42NTUiIGN5PSIxMi45NDgiIHI9IjEuMDAwMyIgZmlsbD0iI2ZmZiIgZmlsbC1ydWxlPSJub256ZXJvIi8+CjwvZz4KPC9zdmc+Cg==;spacingTop=-6;" parent="1" vertex="1">
          <mxGeometry x="400" y="240" width="40" height="40" as="geometry" />
        </mxCell>
        <mxCell id="09wRRcmlkYTDtqjVkMiG-8" value="Service Network&lt;div&gt;10.247.0.0/16&lt;/div&gt;" style="rounded=1;whiteSpace=wrap;html=1;fillColor=#fff2cc;strokeColor=#d6b656;dashed=1;absoluteArcSize=1;imageHeight=24;arcSize=20;verticalAlign=middle;align=center;spacingLeft=0;fontFamily=Arial;spacingTop=0;opacity=50;strokeWidth=1;" parent="1" vertex="1">
          <mxGeometry x="360" y="160" width="240" height="50" as="geometry" />
        </mxCell>
        <mxCell id="09wRRcmlkYTDtqjVkMiG-10" style="edgeStyle=orthogonalEdgeStyle;rounded=0;orthogonalLoop=1;jettySize=auto;html=1;exitX=1;exitY=0.5;exitDx=0;exitDy=0;entryX=0;entryY=0.5;entryDx=0;entryDy=0;strokeWidth=1;strokeColor=#4D4D4D;" parent="1" source="09wRRcmlkYTDtqjVkMiG-9" target="09wRRcmlkYTDtqjVkMiG-4" edge="1">
          <mxGeometry relative="1" as="geometry" />
        </mxCell>
        <mxCell id="09wRRcmlkYTDtqjVkMiG-9" value="EIP&#xa;eip-cce-kubectl" style="shape=image;verticalLabelPosition=bottom;verticalAlign=top;imageAspect=0;aspect=fixed;image=data:image/svg+xml,PHN2ZyB2ZXJzaW9uPSIxLjEiIHZpZXdCb3g9IjAgMCA3MiA3MiIgeG1sbnM9Imh0dHA6Ly93d3cudzMub3JnLzIwMDAvc3ZnIj4KPHRpdGxlPue9kee7nC9FSVA8L3RpdGxlPgo8ZyBmaWxsPSJub25lIiBmaWxsLXJ1bGU9ImV2ZW5vZGQiPgo8cmVjdCB3aWR0aD0iNzIiIGhlaWdodD0iNzIiIHJ4PSIxNiIgZmlsbD0iIzdEQ0MyOSIvPgo8cGF0aCBpZD0iYSIgZD0ibTM2IDEyYy0xMy4yIDAtMjQgMTAuOC0yNCAyNHMxMC44IDI0IDI0IDI0IDI0LTEwLjggMjQtMjQtMTAuOC0yNC0yNC0yNCIgZmlsbD0iI2ZmZiIvPgo8cGF0aCBkPSJtMjguOTA5IDQzLjYzNmMwLjMwMTI1IDAgMC41NDU0NS0wLjI0NDIxIDAuNTQ1NDUtMC41NDU0NXYtMTYuMzY0YzAtMC4zMDEyNS0wLjI0NDIxLTAuNTQ1NDUtMC41NDU0NS0wLjU0NTQ1cy0wLjU0NTQ1IDAuMjQ0MjEtMC41NDU0NSAwLjU0NTQ1djE2LjM2NGMwIDAuMzAxMjUgMC4yNDQyMSAwLjU0NTQ1IDAuNTQ1NDUgMC41NDU0NXptNy41OTA5LTE2LjM2NGg2LjU5MDljMi4xMDU1IDAgMy44MTgyIDEuNzEyNyAzLjgxODIgMy44MTgyIDAgMi4xMDU1LTEuNzEyNyAzLjgxODItMy44MTgyIDMuODE4MmgtNy4wOTA5di03LjEzNjRjMC0wLjI3NjE0IDAuMjIzODYtMC41IDAuNS0wLjV6bS0wLjUgOC43MjczaDcuMDkwOWMyLjcxMDkgMCA0LjkwOTEtMi4xOTgyIDQuOTA5MS00LjkwOTFzLTIuMTk4Mi00LjkwOTEtNC45MDkxLTQuOTA5MWgtNy42ODE4Yy0wLjI3NjE0IDAtMC41IDAuMjIzODYtMC41IDAuNXYxNi40MDljMCAwLjMwMTI1IDAuMjQ0MjEgMC41NDU0NSAwLjU0NTQ1IDAuNTQ1NDUgMC4zMDEyNSAwIDAuNTQ1NDUtMC4yNDQyMSAwLjU0NTQ1LTAuNTQ1NDV2LTcuMDkwOXoiIGZpbGw9IiM3RENDMjkiIHN0cm9rZT0iIzdEQ0MyOSIgc3Ryb2tlLXdpZHRoPSIxLjIiLz4KPHBhdGggZD0ibTIzLjg2MyA0Ny45MzJjMy4wODc4IDMuMTQwNSA3LjM4NSA1LjA4OCAxMi4xMzcgNS4wODggNC44MTExIDAgOS4xNTYtMS45OTYyIDEyLjI1Mi01LjIwNTYiIHN0cm9rZT0iIzdEQ0MyOSIgc3Ryb2tlLWxpbmVjYXA9InJvdW5kIiBzdHJva2Utd2lkdGg9IjEuOCIvPgo8L2c+Cjwvc3ZnPgo=;spacingTop=-4;labelBackgroundColor=default;" parent="1" vertex="1">
          <mxGeometry x="120" y="340" width="40" height="40" as="geometry" />
        </mxCell>
        <mxCell id="09wRRcmlkYTDtqjVkMiG-13" style="edgeStyle=orthogonalEdgeStyle;rounded=0;orthogonalLoop=1;jettySize=auto;html=1;exitX=1;exitY=0.5;exitDx=0;exitDy=0;strokeWidth=1;strokeColor=#4D4D4D;" parent="1" source="09wRRcmlkYTDtqjVkMiG-11" target="09wRRcmlkYTDtqjVkMiG-12" edge="1">
          <mxGeometry relative="1" as="geometry" />
        </mxCell>
        <mxCell id="09wRRcmlkYTDtqjVkMiG-11" value="EIP&#xa;eip-elb-cce-demo" style="shape=image;verticalLabelPosition=bottom;verticalAlign=top;imageAspect=0;aspect=fixed;image=data:image/svg+xml,PHN2ZyB2ZXJzaW9uPSIxLjEiIHZpZXdCb3g9IjAgMCA3MiA3MiIgeG1sbnM9Imh0dHA6Ly93d3cudzMub3JnLzIwMDAvc3ZnIj4KPHRpdGxlPue9kee7nC9FSVA8L3RpdGxlPgo8ZyBmaWxsPSJub25lIiBmaWxsLXJ1bGU9ImV2ZW5vZGQiPgo8cmVjdCB3aWR0aD0iNzIiIGhlaWdodD0iNzIiIHJ4PSIxNiIgZmlsbD0iIzdEQ0MyOSIvPgo8cGF0aCBpZD0iYSIgZD0ibTM2IDEyYy0xMy4yIDAtMjQgMTAuOC0yNCAyNHMxMC44IDI0IDI0IDI0IDI0LTEwLjggMjQtMjQtMTAuOC0yNC0yNC0yNCIgZmlsbD0iI2ZmZiIvPgo8cGF0aCBkPSJtMjguOTA5IDQzLjYzNmMwLjMwMTI1IDAgMC41NDU0NS0wLjI0NDIxIDAuNTQ1NDUtMC41NDU0NXYtMTYuMzY0YzAtMC4zMDEyNS0wLjI0NDIxLTAuNTQ1NDUtMC41NDU0NS0wLjU0NTQ1cy0wLjU0NTQ1IDAuMjQ0MjEtMC41NDU0NSAwLjU0NTQ1djE2LjM2NGMwIDAuMzAxMjUgMC4yNDQyMSAwLjU0NTQ1IDAuNTQ1NDUgMC41NDU0NXptNy41OTA5LTE2LjM2NGg2LjU5MDljMi4xMDU1IDAgMy44MTgyIDEuNzEyNyAzLjgxODIgMy44MTgyIDAgMi4xMDU1LTEuNzEyNyAzLjgxODItMy44MTgyIDMuODE4MmgtNy4wOTA5di03LjEzNjRjMC0wLjI3NjE0IDAuMjIzODYtMC41IDAuNS0wLjV6bS0wLjUgOC43MjczaDcuMDkwOWMyLjcxMDkgMCA0LjkwOTEtMi4xOTgyIDQuOTA5MS00LjkwOTFzLTIuMTk4Mi00LjkwOTEtNC45MDkxLTQuOTA5MWgtNy42ODE4Yy0wLjI3NjE0IDAtMC41IDAuMjIzODYtMC41IDAuNXYxNi40MDljMCAwLjMwMTI1IDAuMjQ0MjEgMC41NDU0NSAwLjU0NTQ1IDAuNTQ1NDUgMC4zMDEyNSAwIDAuNTQ1NDUtMC4yNDQyMSAwLjU0NTQ1LTAuNTQ1NDV2LTcuMDkwOXoiIGZpbGw9IiM3RENDMjkiIHN0cm9rZT0iIzdEQ0MyOSIgc3Ryb2tlLXdpZHRoPSIxLjIiLz4KPHBhdGggZD0ibTIzLjg2MyA0Ny45MzJjMy4wODc4IDMuMTQwNSA3LjM4NSA1LjA4OCAxMi4xMzcgNS4wODggNC44MTExIDAgOS4xNTYtMS45OTYyIDEyLjI1Mi01LjIwNTYiIHN0cm9rZT0iIzdEQ0MyOSIgc3Ryb2tlLWxpbmVjYXA9InJvdW5kIiBzdHJva2Utd2lkdGg9IjEuOCIvPgo8L2c+Cjwvc3ZnPgo=;spacingTop=-4;labelBackgroundColor=light-dark(#fafafa, #272727);" parent="1" vertex="1">
          <mxGeometry x="120" y="220" width="40" height="40" as="geometry" />
        </mxCell>
        <mxCell id="09wRRcmlkYTDtqjVkMiG-14" style="edgeStyle=orthogonalEdgeStyle;rounded=1;orthogonalLoop=1;jettySize=auto;html=1;exitX=1;exitY=0.5;exitDx=0;exitDy=0;entryX=0;entryY=0.5;entryDx=0;entryDy=0;strokeWidth=1;strokeColor=#4D4D4D;curved=0;" parent="1" source="09wRRcmlkYTDtqjVkMiG-12" target="09wRRcmlkYTDtqjVkMiG-6" edge="1">
          <mxGeometry relative="1" as="geometry" />
        </mxCell>
        <mxCell id="09wRRcmlkYTDtqjVkMiG-12" value="ELB&#xa;elb-cce-demo" style="shape=image;verticalLabelPosition=bottom;verticalAlign=top;imageAspect=0;aspect=fixed;image=data:image/svg+xml,PHN2ZyB2ZXJzaW9uPSIxLjEiIHZpZXdCb3g9IjAgMCA3MiA3MiIgeG1sbnM9Imh0dHA6Ly93d3cudzMub3JnLzIwMDAvc3ZnIiB4bWxuczp4bGluaz0iaHR0cDovL3d3dy53My5vcmcvMTk5OS94bGluayI+Cjx0aXRsZT7nvZHnu5wvRUxCPC90aXRsZT4KPGRlZnM+CjxlbGxpcHNlIGlkPSJhIiBjeD0iMzYuMDA1IiBjeT0iMTUuNTg1IiByeD0iNS4wMDI4IiByeT0iNSIvPgo8ZmlsdGVyIGlkPSJiIiB4PSItNDAlIiB5PSItNDAlIiB3aWR0aD0iMTk5LjklIiBoZWlnaHQ9IjIwMCUiPgo8ZmVPZmZzZXQgZHg9IjEiIGR5PSIxIiBpbj0iU291cmNlQWxwaGEiIHJlc3VsdD0ic2hhZG93T2Zmc2V0T3V0ZXIxIi8+CjxmZUdhdXNzaWFuQmx1ciBpbj0ic2hhZG93T2Zmc2V0T3V0ZXIxIiByZXN1bHQ9InNoYWRvd0JsdXJPdXRlcjEiIHN0ZERldmlhdGlvbj0iMS41Ii8+CjxmZUNvbG9yTWF0cml4IGluPSJzaGFkb3dCbHVyT3V0ZXIxIiB2YWx1ZXM9IjAgMCAwIDAgMC4xNTE1NDgyODMgICAwIDAgMCAwIDAuNDAyNDUyOTAxICAgMCAwIDAgMCAwLjcwNzE0NDQ3NSAgMCAwIDAgMC41IDAiLz4KPC9maWx0ZXI+CjwvZGVmcz4KPGcgZmlsbD0ibm9uZSIgZmlsbC1ydWxlPSJldmVub2RkIj4KPHJlY3Qgd2lkdGg9IjcyIiBoZWlnaHQ9IjcyIiByeD0iMTYiIGZpbGw9IiMxNDc2RkYiLz4KPGcgdHJhbnNmb3JtPSJ0cmFuc2xhdGUoMTIgMTIpIj4KPHBhdGggZD0ibTIyLjE2NSA3LjExMjdjMC4xNzIzNiAwLjA5MDU0NSAwLjM1MDE4IDAuMTcwMTggMC41MzY3MyAwLjIzNDU1djMzLjMwN2MtMC43MzMwOSAwLjI1NDE4LTEuMzYxNSAwLjcxMDE4LTEuODE3NSAxLjMwNjlsLTE0LjU1MS02Ljk0OGMwLjA4OTQ1NS0wLjI4OTA5IDAuMTUyNzMtMC41OTAxOCAwLjE1MjczLTAuOTA3NjQgMC0wLjk3Mi0wLjQ2MzY0LTEuODMyNy0xLjE3NDktMi40MTJsMTYuODUzLTI0LjU4em0xOS4zNDcgMjYuOTkyYzAgMC4zMjk0NSAwLjA2NjU0NiAwLjY0MDM2IDAuMTYzNjQgMC45MzgxOGwtMTQuNTcyIDYuOTA1NWMtMC40NTYtMC41OTAxOC0xLjA3ODktMS4wNDE4LTEuODA2NS0xLjI5NDl2LTMzLjMwN2MwLjIxNDkxLTAuMDc0MTgyIDAuNDE4OTEtMC4xNjggMC42MTUyNy0wLjI3NzA5bDE2LjgyOCAyNC41NzljLTAuNzQxODIgMC41NzkyNy0xLjIyODQgMS40NTg1LTEuMjI4NCAyLjQ1NTZ6bTMuMjQ0NC0zLjE1NzFjLTAuMjk2NzMgMC0wLjU3ODE4IDAuMDUxMjczLTAuODUyIDAuMTIzMjdsLTE2Ljk4My0yNC44MDNjMC41OTU2NC0wLjY2NjU1IDAuOTY5ODItMS41MjYyIDAuOTY5ODItMi40Nzg1IDAtMi4wOTAyLTEuNzQ0NC0zLjc4OTgtMy44OTEzLTMuNzg5OC0yLjE0OTEgMC0zLjg5MjQgMS42OTk2LTMuODkyNCAzLjc4OTggMCAwLjk4NCAwLjM5NiAxLjg3MzEgMS4wMjg3IDIuNTQ3M2wtMTYuOTc1IDI0Ljc1NWMtMC4yOTIzNi0wLjA4NTA5MS0wLjU5NzgyLTAuMTQ0LTAuOTE5NjQtMC4xNDQtMS43ODkxIDAtMy4yNDIyIDEuNDE2LTMuMjQyMiAzLjE1NzEgMCAxLjc0MzMgMS40NTMxIDMuMTU4MiAzLjI0MjIgMy4xNTgyIDAuNDczNDUgMCAwLjkxODU1LTAuMTAzNjQgMS4zMjMzLTAuMjgwMzZsMTUuNTYzIDcuNDMxM2MwLjExMDE4IDEuOTk1MyAxLjc5MzUgMy41ODU4IDMuODcxNiAzLjU4NTggMi4wODM2IDAgMy43NzM1LTEuNjAxNSAzLjg3MTYtMy42MDY1bDE1LjU5Ny03LjM5MmMwLjM5NiAwLjE2NjkxIDAuODMwMTggMC4yNjE4MiAxLjI4ODQgMC4yNjE4MiAxLjc4OTEgMCAzLjI0MzMtMS40MTQ5IDMuMjQzMy0zLjE1ODIgMC0xLjc0MTEtMS40NTQyLTMuMTU3MS0zLjI0MzMtMy4xNTcxeiIgZmlsbD0iI2ZmZiIgc3Ryb2tlPSIjZmZmIi8+CjxwYXRoIGlkPSLot6/lvoQiIGQ9Im00NC43NTcgMzZjLTEuMDczNSAwLTEuOTQ2Mi0wLjg0OTgyLTEuOTQ2Mi0xLjg5NDkgMC0xLjA0NCAwLjg3MjczLTEuODk0OSAxLjk0NjItMS44OTQ5IDEuMDcyNCAwIDEuOTQ1MSAwLjg1MDkxIDEuOTQ1MSAxLjg5NDkgMCAxLjA0NTEtMC44NzI3MyAxLjg5NDktMS45NDUxIDEuODk0OXoiIGZpbGw9IiMxNDc2RkYiLz4KPHBhdGggaWQ9ImMiIGQ9Im0yNCA0Ni43MzhjLTEuNDMxMyAwLTIuNTk0Mi0xLjEzMzUtMi41OTQyLTIuNTI2NXMxLjE2MjktMi41MjY1IDIuNTk0Mi0yLjUyNjVjMS40MzAyIDAgMi41OTQyIDEuMTMzNSAyLjU5NDIgMi41MjY1cy0xLjE2NCAyLjUyNjUtMi41OTQyIDIuNTI2NXoiIGZpbGw9IiMxNDc2RkYiLz4KPHBhdGggZD0ibTEuMjk3MSAzNC4xMDVjMC0xLjA0NCAwLjg3MjczLTEuODk0OSAxLjk0NTEtMS44OTQ5IDEuMDc0NSAwIDEuOTQ2MiAwLjg1MDkxIDEuOTQ2MiAxLjg5NDkgMCAxLjA0NTEtMC44NzE2NCAxLjg5NDktMS45NDYyIDEuODk0OS0xLjA3MjQgMC0xLjk0NTEtMC44NDk4Mi0xLjk0NTEtMS44OTQ5eiIgZmlsbD0iIzE0NzZGRiIvPgo8L2c+Cjx1c2UgZmlsbD0iYmxhY2siIGZpbHRlcj0idXJsKCNiKSIgeGxpbms6aHJlZj0iI2EiLz4KPHVzZSBmaWxsPSIjRkZGRkZGIiBmaWxsLXJ1bGU9ImV2ZW5vZGQiIHhsaW5rOmhyZWY9IiNhIi8+CjwvZz4KPC9zdmc+Cg==;spacingTop=-4;labelBackgroundColor=light-dark(#fafafa, #272727);" parent="1" vertex="1">
          <mxGeometry x="250" y="220" width="40" height="40" as="geometry" />
        </mxCell>
        <mxCell id="09wRRcmlkYTDtqjVkMiG-18" style="edgeStyle=orthogonalEdgeStyle;rounded=0;orthogonalLoop=1;jettySize=auto;html=1;exitX=0;exitY=0.5;exitDx=0;exitDy=0;entryX=1;entryY=0.5;entryDx=0;entryDy=0;strokeColor=#4D4D4D;strokeWidth=1;align=center;verticalAlign=middle;fontFamily=Helvetica;fontSize=11;fontColor=default;labelBackgroundColor=default;endArrow=classic;" parent="1" source="09wRRcmlkYTDtqjVkMiG-16" target="09wRRcmlkYTDtqjVkMiG-17" edge="1">
          <mxGeometry relative="1" as="geometry" />
        </mxCell>
        <mxCell id="09wRRcmlkYTDtqjVkMiG-16" value="NAT Gateway&#xa;nat-demo" style="shape=image;verticalLabelPosition=bottom;verticalAlign=top;imageAspect=0;aspect=fixed;image=data:image/svg+xml,PHN2ZyB2ZXJzaW9uPSIxLjEiIHZpZXdCb3g9IjAgMCA3MiA3MiIgeG1sbnM9Imh0dHA6Ly93d3cudzMub3JnLzIwMDAvc3ZnIj4KPHRpdGxlPue9kee7nC9OQVQ8L3RpdGxlPgo8ZyBmaWxsLXJ1bGU9ImV2ZW5vZGQiPgo8cmVjdCB3aWR0aD0iNzIiIGhlaWdodD0iNzIiIHJ4PSIxNiIgZmlsbD0iIzI1QzI1MSIvPgo8cGF0aCBkPSJtMTYuNTcxIDEyYy0yLjUyNDYgMC00LjU3MTQgMi4wNDY5LTQuNTcxNCA0LjU3MTR2MzguODU3YzAgMi41MjQ2IDIuMDQ2OSA0LjU3MTQgNC41NzE0IDQuNTcxNGgzOC44NTdjMi41MjQ2IDAgNC41NzE0LTIuMDQ2OSA0LjU3MTQtNC41NzE0di0zOC44NTdjMC0yLjUyNDYtMi4wNDY5LTQuNTcxNC00LjU3MTQtNC41NzE0aC0zOC44NTd6IiBmaWxsPSIjZmZmIi8+CjxwYXRoIGQ9Im00NC4yNTcgNDcuOTk5LTIuMDAzMSAyLjQwMzV2LTkuNDQ0MmMwLTAuMzQyMTItMC4yNzc2Ni0wLjYxOTc4LTAuNjE5NzgtMC42MTk3OC0wLjM0MzM2IDAtMC42MTk3OCAwLjI3NzY2LTAuNjE5NzggMC42MTk3OHYxMS4xNTZjMCAwLjI2MTU1IDAuMTYzNjIgMC40OTMzNCAwLjQwOTA1IDAuNTgyNTkgMC4wNjk0MTUgMC4wMjYwMzEgMC4xNDAwNyAwLjAzNzE4NyAwLjIxMDcyIDAuMDM3MTg3IDAuMTgwOTcgMCAwLjM1NTc1LTAuMDc4MDkyIDAuNDc1OTktMC4yMjMxMmwzLjA5ODktMy43MTg3YzAuMjE4MTYtMC4yNjI3OSAwLjE4MzQ1LTAuNjUzMjQtMC4wNzgwOTItMC44NzI2NS0wLjI2MTU1LTAuMjE5NC0wLjY1NTcyLTAuMTg0NjktMC44NzM4OSAwLjA3OTMzMSIgZmlsbD0iIzI1QzI1MSIgc3Ryb2tlPSIjMjVDMjUxIiBzdHJva2Utd2lkdGg9IjEuMiIvPgo8cGF0aCBkPSJtMjkuNzQ2IDQwLjk1OHYxMS4xNTZjMCAwLjM0MjEyIDAuMjc3NjYgMC42MTk3OCAwLjYxOTc4IDAuNjE5NzhzMC42MTk3OC0wLjI3NzY2IDAuNjE5NzgtMC42MTk3OHYtMTEuMTU2YzAtMC4zNDIxMi0wLjI3NzY2LTAuNjE5NzgtMC42MTk3OC0wLjYxOTc4cy0wLjYxOTc4IDAuMjc3NjYtMC42MTk3OCAwLjYxOTc4eiIgZmlsbD0iIzI1QzI1MSIgc3Ryb2tlPSIjMjVDMjUxIiBzdHJva2Utd2lkdGg9IjEuMiIvPgo8cGF0aCBkPSJtNDIuMjU0IDI4LjU2M3YtOC42NzY5YzAtMC4zNDIxMi0wLjI3NzY2LTAuNjE5NzgtMC42MTk3OC0wLjYxOTc4cy0wLjYxOTc4IDAuMjc3NjYtMC42MTk3OCAwLjYxOTc4djguNjc2OWgtMTAuMDI5di04LjY3NjljMC0wLjI2MDMxLTAuMTYzNjItMC40OTMzNC0wLjQwOTA1LTAuNTgyNTktMC4yNDc5MS0wLjA5MDQ4Ny0wLjUyMDYxLTAuMDE0ODc1LTAuNjg2NzEgMC4xODU5M2wtMy4wOTg5IDMuNzE4N2MtMC4yMTk0IDAuMjYyNzktMC4xODM0NSAwLjY1NDQ4IDAuMDc4MDkyIDAuODczODkgMC4yNjI3OSAwLjIxNjkyIDAuNjUyMDEgMC4xODM0NSAwLjg3MjY1LTAuMDc5MzMxbDIuMDA0NC0yLjQwNDd2Ni45NjUxaC0zLjY2MjNjLTQuNzgzNCAwLTguNjc2OSAzLjYxNDUtOC42NzY5IDguMDU3MXMzLjg5MzQgOC4wNTcxIDguNjc2OSA4LjA1NzFjMC4zNDIxMiAwIDAuNjE5NzgtMC4yNzc2NiAwLjYxOTc4LTAuNjE5NzhzLTAuMjc3NjYtMC42MTk3OC0wLjYxOTc4LTAuNjE5NzhjLTQuMTAxNyAwLTcuNDM3My0zLjA1OTItNy40MzczLTYuODE3NSAwLTMuNzU5NiAzLjMzNTYtNi44MTc1IDcuNDM3My02LjgxNzVoMTkuODMzYzQuMTAxNyAwIDcuNDM3MyAzLjA1OCA3LjQzNzMgNi44MTc1IDAgMy43NTgzLTMuMzM1NiA2LjgxNzUtNy40MzczIDYuODE3NS0wLjM0MjEyIDAtMC42MTk3OCAwLjI3NzY2LTAuNjE5NzggMC42MTk3OHMwLjI3NzY2IDAuNjE5NzggMC42MTk3OCAwLjYxOTc4YzQuNzgzNCAwIDguNjc2OS0zLjYxNDUgOC42NzY5LTguMDU3MXMtMy44OTM0LTguMDU3MS04LjY3NjktOC4wNTcxaC0zLjY2MjN6IiBmaWxsPSIjMjVDMjUxIiBzdHJva2U9IiMyNUMyNTEiIHN0cm9rZS13aWR0aD0iMS4yIi8+CjwvZz4KPC9zdmc+Cg==;spacingTop=-4;labelBackgroundColor=light-dark(#fafafa, #272727);" parent="1" vertex="1">
          <mxGeometry x="250" y="100" width="40" height="40" as="geometry" />
        </mxCell>
        <mxCell id="09wRRcmlkYTDtqjVkMiG-17" value="EIP&#xa;eip-nat-demo" style="shape=image;verticalLabelPosition=bottom;verticalAlign=top;imageAspect=0;aspect=fixed;image=data:image/svg+xml,PHN2ZyB2ZXJzaW9uPSIxLjEiIHZpZXdCb3g9IjAgMCA3MiA3MiIgeG1sbnM9Imh0dHA6Ly93d3cudzMub3JnLzIwMDAvc3ZnIj4KPHRpdGxlPue9kee7nC9FSVA8L3RpdGxlPgo8ZyBmaWxsPSJub25lIiBmaWxsLXJ1bGU9ImV2ZW5vZGQiPgo8cmVjdCB3aWR0aD0iNzIiIGhlaWdodD0iNzIiIHJ4PSIxNiIgZmlsbD0iIzdEQ0MyOSIvPgo8cGF0aCBpZD0iYSIgZD0ibTM2IDEyYy0xMy4yIDAtMjQgMTAuOC0yNCAyNHMxMC44IDI0IDI0IDI0IDI0LTEwLjggMjQtMjQtMTAuOC0yNC0yNC0yNCIgZmlsbD0iI2ZmZiIvPgo8cGF0aCBkPSJtMjguOTA5IDQzLjYzNmMwLjMwMTI1IDAgMC41NDU0NS0wLjI0NDIxIDAuNTQ1NDUtMC41NDU0NXYtMTYuMzY0YzAtMC4zMDEyNS0wLjI0NDIxLTAuNTQ1NDUtMC41NDU0NS0wLjU0NTQ1cy0wLjU0NTQ1IDAuMjQ0MjEtMC41NDU0NSAwLjU0NTQ1djE2LjM2NGMwIDAuMzAxMjUgMC4yNDQyMSAwLjU0NTQ1IDAuNTQ1NDUgMC41NDU0NXptNy41OTA5LTE2LjM2NGg2LjU5MDljMi4xMDU1IDAgMy44MTgyIDEuNzEyNyAzLjgxODIgMy44MTgyIDAgMi4xMDU1LTEuNzEyNyAzLjgxODItMy44MTgyIDMuODE4MmgtNy4wOTA5di03LjEzNjRjMC0wLjI3NjE0IDAuMjIzODYtMC41IDAuNS0wLjV6bS0wLjUgOC43MjczaDcuMDkwOWMyLjcxMDkgMCA0LjkwOTEtMi4xOTgyIDQuOTA5MS00LjkwOTFzLTIuMTk4Mi00LjkwOTEtNC45MDkxLTQuOTA5MWgtNy42ODE4Yy0wLjI3NjE0IDAtMC41IDAuMjIzODYtMC41IDAuNXYxNi40MDljMCAwLjMwMTI1IDAuMjQ0MjEgMC41NDU0NSAwLjU0NTQ1IDAuNTQ1NDUgMC4zMDEyNSAwIDAuNTQ1NDUtMC4yNDQyMSAwLjU0NTQ1LTAuNTQ1NDV2LTcuMDkwOXoiIGZpbGw9IiM3RENDMjkiIHN0cm9rZT0iIzdEQ0MyOSIgc3Ryb2tlLXdpZHRoPSIxLjIiLz4KPHBhdGggZD0ibTIzLjg2MyA0Ny45MzJjMy4wODc4IDMuMTQwNSA3LjM4NSA1LjA4OCAxMi4xMzcgNS4wODggNC44MTExIDAgOS4xNTYtMS45OTYyIDEyLjI1Mi01LjIwNTYiIHN0cm9rZT0iIzdEQ0MyOSIgc3Ryb2tlLWxpbmVjYXA9InJvdW5kIiBzdHJva2Utd2lkdGg9IjEuOCIvPgo8L2c+Cjwvc3ZnPgo=;spacingTop=-4;labelBackgroundColor=light-dark(#fafafa, #272727);" parent="1" vertex="1">
          <mxGeometry x="120" y="100" width="40" height="40" as="geometry" />
        </mxCell>
        <mxCell id="09wRRcmlkYTDtqjVkMiG-30" value="" style="shape=image;verticalLabelPosition=bottom;labelBackgroundColor=default;verticalAlign=top;aspect=fixed;imageAspect=0;image=data:image/svg+xml,PHN2ZyB4bWxucz0iaHR0cDovL3d3dy53My5vcmcvMjAwMC9zdmciIHhtbDpzcGFjZT0icHJlc2VydmUiIGlkPSJzdmcxNDQwIiB2ZXJzaW9uPSIxLjEiIHZpZXdCb3g9IjAgMCAzMCAzMCIgaGVpZ2h0PSIzMG1tIiB3aWR0aD0iMzBtbSI+PGRlZnMgaWQ9ImRlZnMxNDM3Ii8+PGcgdHJhbnNmb3JtPSJ0cmFuc2xhdGUoLTEwMS44MzczOSwtODYuNTA0MDEzKSIgaWQ9ImxheWVyMSI+PHBhdGggZD0ibSAxMTEuODM3MTgsODYuNTAzODkzIGMgLTUuNTM5OTksMCAtOS45OTk5MSw0LjQ1OTkxIC05Ljk5OTkxLDkuOTk5OTEgdiAyLjI4NjE2IDcuNzEzNzM3IDEwLjAwMDQzIGggOS45OTk5MSA0Ljc0MDggNS4yNTkxMSBjIDUuNTM5OTksMCAxMC4wMDA0MiwtNC40NjA0MyAxMC4wMDA0MiwtMTAuMDAwNDMgdiAtNC45OTk2OSAtNS4wMDAyMDcgLTkuOTk5OTEgaCAtMTAuMDAwNDIgLTQuMDM1NDIgeiIgc3R5bGU9ImZpbGw6I2M3MDAwYjtzdHJva2Utd2lkdGg6MS4xNzU0NjtzdHJva2UtbGluZWNhcDpyb3VuZDtzdHJva2UtZGFzaGFycmF5OjIuMzUwOTIsIDIuMzUwOTI7cGFpbnQtb3JkZXI6bWFya2VycyBzdHJva2UgZmlsbDtmaWxsLW9wYWNpdHk6MSIgaWQ9InJlY3QxLTIiLz48cGF0aCBzdHlsZT0iZmlsbDojZmZmZmZmO3N0cm9rZS13aWR0aDowLjQ1NDU0NSIgaWQ9InBhdGgzIiBkPSJtIDEyMS45NzM3Niw5Ny45MTMxMTEgYyAtMC43MjcyNywtMi4xMzYzNyAtMi43MjcyOSwtMy42ODE4MjUgLTUuMTM2MzcsLTMuNjgxODI1IC0yLjQwOTA4LDAgLTQuNDA5MSwxLjU0NTQ1NSAtNS4xMzYzNywzLjY4MTgyNSAtMi43MjcyNiwwLjI3MjcyIC00Ljg2MzYzLDIuNTkwODk5IC00Ljg2MzYzLDUuNDA5MDc5IDAsMyAyLjQ1NDU1LDUuNDU0NTUgNS40NTQ1NSw1LjQ1NDU1IGggOS4wOTA5IGMgMywwIDUuNDU0NTUsLTIuNDU0NTUgNS40NTQ1NSwtNS40NTQ1NSAwLC0yLjgxODE4IC0yLjEzNjM3LC01LjEzNjM1OSAtNC44NjM2MywtNS40MDkwNzkgeiBtIC0wLjU5MDkyLDkuOTU0NTI5IGggLTkuMDkwOSBjIC0yLjUsMCAtNC41NDU0NywtMi4wNDU0NSAtNC41NDU0NywtNC41NDU0NSAwLC0yLjMxODE4IDEuNzI3MjksLTQuMjcyNzI5IDQuMDQ1NDUsLTQuNDk5OTk5IDAuMzYzNjUsLTAuMDQ1NSAwLjYzNjM3LC0wLjI3MjczIDAuNzcyNzYsLTAuNTkwOSAwLjYzNjM0LC0xLjgxODE4IDIuMzYzNjEsLTMuMDQ1NDU4IDQuMjcyNzEsLTMuMDQ1NDU4IDEuOTA5MSwwIDMuNjM2MzcsMS4yMjcyNzggNC4yNzI3MSwzLjA0NTQ1OCAwLjEzNjMzLDAuMzE4MTcgMC40MDkxMSwwLjU0NTQ1IDAuNzcyNzQsMC41OTA5IDIuMzE4MTgsMC4yNzI3NCA0LjA0NTQ3LDIuMTgxODE5IDQuMDQ1NDcsNC40OTk5OTkgMCwyLjUgLTIuMDQ1NDcsNC41NDU0NSAtNC41NDU0Nyw0LjU0NTQ1IHoiIGNsYXNzPSJzdDAiLz48L2c+PC9zdmc+;resizable=0;" parent="1" vertex="1">
          <mxGeometry x="140" y="-60" width="30" height="30" as="geometry" />
        </mxCell>
        <mxCell id="if3oiUN3qjUnLQMsc54G-3" value="ECS&#xa;cce-demo-pool-yyy" style="shape=image;verticalLabelPosition=bottom;verticalAlign=top;imageAspect=0;aspect=fixed;image=data:image/svg+xml,PHN2ZyB2ZXJzaW9uPSIxLjEiIHZpZXdCb3g9IjAgMCAyNCAyNCIgeG1sbnM9Imh0dHA6Ly93d3cudzMub3JnLzIwMDAvc3ZnIj4KPHRpdGxlPuiuoeeuly9FQ1M8L3RpdGxlPgo8ZyBmaWxsPSJub25lIiBmaWxsLXJ1bGU9ImV2ZW5vZGQiPgo8cmVjdCB3aWR0aD0iMjQuMDA3IiBoZWlnaHQ9IjI0LjAwNyIgcng9IjUuMDAxNCIgZmlsbD0iI0Y4NTgzNSIgZmlsbC1ydWxlPSJub256ZXJvIi8+CjxwYXRoIGQ9Im04LjAwNDcgMTguMDA1LTEuNzk4M2UtNCAtMC4wMDcxNTc3Yy0yLjIzMjEtMC4xMzIwNC00LjAwMzQtMi4wNzQ0LTQuMDAzNC00LjQ1MTIgMC0yLjQxOTMgMS44MzUyLTQuMzg4NSA0LjEyMzYtNC40NTY1IDAuNTUwNjMtMS43OTIgMi4xNTIxLTMuMDg4NCA0LjA0MTktMy4wODg0IDEuODk4MiAwIDMuNTA1NSAxLjMwNzkgNC4wNDkxIDMuMTEyMyAyLjEzMDQgMC4yMzg2IDMuNzg5OCAyLjEzMjEgMy43ODk4IDQuNDMyNiAwIDIuNDI3MS0xLjg0NzEgNC40MDEyLTQuMTQ1OCA0LjQ1NzFsLTAuMTAwMjMgMC4wMDEyMTc2aC03Ljc1NDd6IiBmaWxsPSIjZmZmIi8+CjxyZWN0IHg9IjYuNjQzMSIgeT0iMTEuMjI3IiB3aWR0aD0iMTAuNzU1IiBoZWlnaHQ9IjMuMjkwMiIgcng9IjEuNjQ1MSIgZmlsbD0iI0Y4NTgzNSIgZmlsbC1ydWxlPSJub256ZXJvIi8+CjxwYXRoIGQ9Im03LjY0NDggMTUuNTA3IDguNzY3IDAuMDM3NTE5YzAuMjAxMTQgOC42MDdlLTQgMC4zNjM0OSAwLjE2NTIzIDAuMzYyNjQgMC4zNjcxMy04LjI1M2UtNCAwLjE5MjcyLTAuMTUwMDYgMC4zNDk5OC0wLjMzODU2IDAuMzYzMTNsLTAuMDI3MTg0IDguODYzZS00IC04Ljc2Ny0wLjAzNzUxOWMtMC4yMDExNC04LjYwN2UtNCAtMC4zNjM0OS0wLjE2NTIzLTAuMzYyNjQtMC4zNjcxMyA4LjI1MjZlLTQgLTAuMTkyNzIgMC4xNTAwNi0wLjM0OTk4IDAuMzM4NTYtMC4zNjMxM2wwLjAyNzE4NC04Ljg2M2UtNHoiIGZpbGw9IiNGODU4MzUiIGZpbGwtcnVsZT0ibm9uemVybyIvPgo8Y2lyY2xlIGN4PSIxNS42NTUiIGN5PSIxMi45NDgiIHI9IjEuMDAwMyIgZmlsbD0iI2ZmZiIgZmlsbC1ydWxlPSJub256ZXJvIi8+CjwvZz4KPC9zdmc+Cg==;spacingTop=-6;" vertex="1" parent="1">
          <mxGeometry x="520" y="240" width="40" height="40" as="geometry" />
        </mxCell>
        <mxCell id="if3oiUN3qjUnLQMsc54G-7" value="OBS&#xa;var.obs_bucket_name" style="shape=image;verticalLabelPosition=bottom;verticalAlign=top;imageAspect=0;aspect=fixed;image=data:image/svg+xml,PHN2ZyBmaWxsPSJub25lIiB2aWV3Qm94PSIwIDAgNzIgNzIiIHhtbG5zPSJodHRwOi8vd3d3LnczLm9yZy8yMDAwL3N2ZyI+CjxkZXNjPkNyZWF0ZWQgd2l0aCBQaXhzby48L2Rlc2M+CjxkZWZzPgo8Y2xpcFBhdGggaWQ9ImEiPgo8cmVjdCB3aWR0aD0iNzIiIGhlaWdodD0iNzIiIGZpbGw9IiNmZmYiIGZpbGwtb3BhY2l0eT0iMCIvPgo8L2NsaXBQYXRoPgo8L2RlZnM+CjxnIGNsaXAtcGF0aD0idXJsKCNhKSIgZmlsbC1ydWxlPSJldmVub2RkIj4KPHBhdGggZD0ibTE2IDBoNDBjOC44IDAgMTYgNy4yIDE2IDE2djQwYzAgOC44LTcuMiAxNi0xNiAxNmgtNDBjLTguOCAwLTE2LTcuMi0xNi0xNnYtNDBjMC04LjggNy4yLTE2IDE2LTE2eiIgZmlsbD0iIzI1QzI1MSIvPgo8cGF0aCBkPSJtMzYgMThjNiAwIDExIDQuMSAxMi4zIDkuNyA2LjYgMC44IDExLjcgNi4zIDExLjcgMTMuMSAwIDcuMy01LjkgMTMuMi0xMy4yIDEzLjJoLTUuMnYtOC42aDUuNWMwLjQgMCAwLjctMC4yIDEtMC40IDAuNS0wLjUgMC41LTEuNCAwLTEuOWwtOS44LTEwLjAxYy0xLjIxLTEuMTktMy4yMS0xLjE5LTQuNCAwbC05LjkgOS45MWMtMC4yIDAuMy0wLjQgMC42LTAuNCAxIDAuMSAwLjcgMC42IDEuMyAxLjMgMS4zaDUuNXY4LjZoLTUuMmMtNy4zIDAuMS0xMy4yLTUuOC0xMy4yLTEzLjEgMC02LjggNS4xLTEyLjMgMTEuNy0xMy4xIDEuMy01LjUgNi4zLTkuNyAxMi4zLTkuN3oiIGZpbGw9IiNmZmYiLz4KPC9nPgo8L3N2Zz4K" vertex="1" parent="1">
          <mxGeometry x="560" y="460" width="40" height="40" as="geometry" />
        </mxCell>
        <mxCell id="if3oiUN3qjUnLQMsc54G-9" style="edgeStyle=orthogonalEdgeStyle;rounded=1;orthogonalLoop=1;jettySize=auto;html=1;exitX=1;exitY=0.5;exitDx=0;exitDy=0;entryX=0;entryY=0.5;entryDx=0;entryDy=0;dashed=1;strokeColor=#4D4D4D;strokeWidth=1;align=center;verticalAlign=middle;fontFamily=Helvetica;fontSize=11;fontColor=default;labelBackgroundColor=default;endArrow=classic;curved=0;" edge="1" parent="1" source="if3oiUN3qjUnLQMsc54G-8" target="if3oiUN3qjUnLQMsc54G-7">
          <mxGeometry relative="1" as="geometry" />
        </mxCell>
        <mxCell id="if3oiUN3qjUnLQMsc54G-11" style="edgeStyle=orthogonalEdgeStyle;rounded=1;orthogonalLoop=1;jettySize=auto;html=1;exitX=0.5;exitY=1;exitDx=0;exitDy=0;dashed=1;strokeColor=#4D4D4D;strokeWidth=1;align=center;verticalAlign=middle;fontFamily=Helvetica;fontSize=11;fontColor=default;labelBackgroundColor=default;endArrow=classic;curved=0;" edge="1" parent="1" source="if3oiUN3qjUnLQMsc54G-8" target="if3oiUN3qjUnLQMsc54G-10">
          <mxGeometry relative="1" as="geometry" />
        </mxCell>
        <mxCell id="if3oiUN3qjUnLQMsc54G-8" value="IAM User&#xa;var.obs_bucket_name" style="shape=image;verticalLabelPosition=bottom;verticalAlign=top;imageAspect=0;aspect=fixed;image=data:image/svg+xml,PHN2ZyBmaWxsPSJub25lIiB2aWV3Qm94PSIwIDAgNzIgNzIiIHhtbG5zPSJodHRwOi8vd3d3LnczLm9yZy8yMDAwL3N2ZyI+CjxkZXNjPkNyZWF0ZWQgd2l0aCBQaXhzby48L2Rlc2M+CjxkZWZzPgo8Y2xpcFBhdGggaWQ9ImEiPgo8cmVjdCB3aWR0aD0iNzIiIGhlaWdodD0iNzIiIGZpbGw9IiNmZmYiIGZpbGwtb3BhY2l0eT0iMCIvPgo8L2NsaXBQYXRoPgo8L2RlZnM+CjxnIGNsaXAtcGF0aD0idXJsKCNhKSI+CjxwYXRoIGQ9Im0xNiAwaDQwYzguOCAwIDE2IDcuMTkgMTYgMTZ2NDBjMCA4LjgtNy4yIDE2LTE2IDE2aC00MGMtOC44IDAtMTYtNy4yLTE2LTE2di00MGMwLTguODEgNy4yLTE2IDE2LTE2eiIgZmlsbD0iIzE0NzZGRiIgZmlsbC1ydWxlPSJldmVub2RkIi8+CjxwYXRoIGQ9Im01Ni43IDE4YzEuNyAwIDMuMyAxLjUgMy4zIDMuMzl2MjkuMjFjMCAxLjktMS40IDMuNC0zLjMgMy40aC00MS40Yy0xLjcgMC0zLjMtMS42MS0zLjMtMy40di0yOS4yMWMwLTEuODkgMS40LTMuMzkgMy4zLTMuMzloNDEuNHptLTMxLjkgOGMtMi41IDAtNC42IDIuMS00LjYgNC43djMuNGMwIDEuNCAwLjYgMi43IDEuNyAzLjZ2MC41Yy0wLjIgMC4xLTAuOCAwLjMtMS4yIDAuNC0xLjUgMC40LTMuNyAxLjEtMy43IDMuMXYxLjY5YzAgMC4zMSAwLjIgMC41IDAuNSAwLjVoMTQuNTljMC4zMSAwIDAuNS0wLjE5IDAuNS0wLjV2LTEuNjljMC0yLTIuMTktMi43LTMuNjktMy4xLTAuNC0wLjEtMS0wLjMtMS4yLTAuNHYtMC41YzEuMS0wLjkgMS43LTIuMiAxLjctMy42di0zLjRjMC0yLjYtMi4xLTQuNy00LjYtNC43em0yOC40IDE0aC0xNC40Yy0wLjQgMC0wLjggMC4zLTAuOCAwLjh2MC41YzAgMC40IDAuMyAwLjggMC44IDAuOGgxNC41YzAuNCAwIDAuOC0wLjMgMC44LTAuOHYtMC41Yy0wLjEtMC41LTAuNC0wLjgtMC45LTAuOHptMC01aC0xNC40Yy0wLjQgMC0wLjggMC4zLTAuOCAwLjh2MC41YzAgMC40IDAuMyAwLjggMC44IDAuOGgxNC41YzAuNCAwIDAuOC0wLjMgMC44LTAuOHYtMC41Yy0wLjEtMC41LTAuNC0wLjgtMC45LTAuOHptMC01aC0xNC40Yy0wLjQgMC0wLjggMC4zLTAuOCAwLjh2MC41YzAgMC40IDAuMyAwLjggMC44IDAuOGgxNC41YzAuNCAwIDAuOC0wLjMgMC44LTAuOHYtMC41Yy0wLjEtMC41LTAuNC0wLjgtMC45LTAuOHoiIGZpbGw9IiNmZmYiLz4KPC9nPgo8L3N2Zz4K;labelBackgroundColor=light-dark(#fafafa, #ededed);" vertex="1" parent="1">
          <mxGeometry x="400" y="460" width="40" height="40" as="geometry" />
        </mxCell>
        <mxCell id="if3oiUN3qjUnLQMsc54G-10" value="&lt;div&gt;AK / SK&lt;/div&gt;output/obs-credentials.csv" style="sketch=0;pointerEvents=1;shadow=0;dashed=1;html=1;strokeColor=none;fillColor=#505050;labelPosition=center;verticalLabelPosition=bottom;verticalAlign=top;outlineConnect=0;align=center;shape=mxgraph.office.concepts.file_key;" vertex="1" parent="1">
          <mxGeometry x="401.88" y="600" width="36.23" height="40" as="geometry" />
        </mxCell>
        <mxCell id="if3oiUN3qjUnLQMsc54G-12" value="Kubeconfig&lt;div&gt;output/kubeconfig.json&lt;/div&gt;" style="sketch=0;pointerEvents=1;shadow=0;dashed=1;html=1;strokeColor=none;fillColor=#505050;labelPosition=center;verticalLabelPosition=bottom;verticalAlign=top;outlineConnect=0;align=center;shape=mxgraph.office.concepts.file_key;" vertex="1" parent="1">
          <mxGeometry x="240" y="600" width="36.23" height="40" as="geometry" />
        </mxCell>
      </root>
    </mxGraphModel>
  </diagram>
</mxfile>
